<svg width="40" height="40" viewBox="0 0 40 40" xmlns="http://www.w3.org/2000/svg">
<rect width="40" height="40" rx="20" fill="white"/>
<path d="M17.2 11.25H17.1667H17.1667C15.9348 11.25 14.9643 11.25 14.1833 11.3138C13.3866 11.3789 12.7212 11.5141 12.1166 11.8222C11.1287 12.3256 10.3256 13.1287 9.82222 14.1166C9.51413 14.7212 9.3789 15.3866 9.3138 16.1833C9.24999 16.9643 9.25 17.9348 9.25 19.1667V19.1667V19.2V20.8V20.8333V20.8333C9.25 22.0652 9.24999 23.0357 9.3138 23.8167C9.3789 24.6134 9.51413 25.2788 9.82222 25.8835C10.3256 26.8713 11.1287 27.6744 12.1166 28.1778C12.7212 28.4859 13.3866 28.6211 14.1833 28.6862C14.9643 28.75 15.9348 28.75 17.1667 28.75H17.2H22.8H22.8333C24.0652 28.75 25.0357 28.75 25.8167 28.6862C26.6134 28.6211 27.2788 28.4859 27.8835 28.1778C28.8713 27.6744 29.6744 26.8713 30.1778 25.8835C30.4859 25.2788 30.6211 24.6134 30.6862 23.8167C30.75 23.0357 30.75 22.0652 30.75 20.8332V20.8V19.2V19.1668C30.75 17.9348 30.75 16.9643 30.6862 16.1833C30.6211 15.3866 30.4859 14.7212 30.1778 14.1166C29.6744 13.1287 28.8713 12.3256 27.8835 11.8222C27.2788 11.5141 26.6134 11.3789 25.8167 11.3138C25.0357 11.25 24.0652 11.25 22.8333 11.25H22.8333H22.8H17.2ZM12.7975 13.1587C13.1555 12.9763 13.6015 12.8663 14.3055 12.8088C15.0182 12.7506 15.9275 12.75 17.2 12.75H22.8C24.0725 12.75 24.9818 12.7506 25.6945 12.8088C26.3985 12.8663 26.8445 12.9763 27.2025 13.1587C27.9081 13.5183 28.4818 14.0919 28.8413 14.7975C29.0237 15.1555 29.1337 15.6015 29.1912 16.3055C29.2494 17.0182 29.25 17.9275 29.25 19.2V20.8C29.25 22.0725 29.2494 22.9818 29.1912 23.6945C29.1337 24.3985 29.0237 24.8445 28.8413 25.2025C28.4818 25.9081 27.9081 26.4817 27.2025 26.8413C26.8445 27.0237 26.3985 27.1337 25.6945 27.1912C24.9818 27.2494 24.0725 27.25 22.8 27.25H17.2C15.9275 27.25 15.0182 27.2494 14.3055 27.1912C13.6015 27.1337 13.1555 27.0237 12.7975 26.8413C12.0919 26.4817 11.5183 25.9081 11.1587 25.2025C10.9763 24.8445 10.8663 24.3985 10.8088 23.6945C10.7506 22.9818 10.75 22.0725 10.75 20.8V19.2C10.75 17.9275 10.7506 17.0182 10.8088 16.3055C10.8663 15.6015 10.9763 15.1555 11.1587 14.7975C11.5183 14.0919 12.0919 13.5183 12.7975 13.1587ZM13.3721 14.8488C13.0125 14.6433 12.5543 14.7683 12.3488 15.1279C12.1433 15.4875 12.2683 15.9457 12.6279 16.1512L19.1318 19.8677C19.6698 20.1751 20.3302 20.1751 20.8682 19.8677L27.3721 16.1512C27.7317 15.9457 27.8567 15.4875 27.6512 15.1279C27.4457 14.7683 26.9875 14.6433 26.6279 14.8488L20.124 18.5653C20.0472 18.6092 19.9528 18.6092 19.876 18.5653L13.3721 14.8488Z"/>
</svg>
