<svg width="30" height="30" viewBox="0 0 30 30" fill-rule="evenodd" xmlns="http://www.w3.org/2000/svg">
<path fill-rule="evenodd" d="M24.6681 3.67034L24.6466 3.64882L24.6465 3.64877C24.2688 3.27108 23.9536 2.95583 23.675 2.71933C23.3844 2.47266 23.0848 2.26792 22.7248 2.15095C22.1725 1.97149 21.5775 1.97149 21.0252 2.15095C20.6652 2.26792 20.3656 2.47266 20.075 2.71933C19.7964 2.95583 19.4812 3.27108 19.1035 3.64876L19.1034 3.64882L19.0819 3.67034L17.4202 5.33204L17.3987 5.35356L17.3987 5.35358C17.021 5.73127 16.7057 6.04652 16.4692 6.32511C16.2225 6.61568 16.0178 6.91533 15.9008 7.27532C15.7214 7.82764 15.7214 8.42259 15.9008 8.97491C16.0178 9.3349 16.2225 9.63455 16.4692 9.92512C16.7057 10.2037 17.021 10.5189 17.3987 10.8966L17.3987 10.8967L17.4202 10.9182L19.0819 12.5799L19.1035 12.6014C19.4812 12.9791 19.7964 13.2944 20.075 13.5309C20.3656 13.7776 20.6652 13.9823 21.0252 14.0993C21.5775 14.2787 22.1725 14.2787 22.7248 14.0993C23.0848 13.9823 23.3844 13.7776 23.675 13.5309C23.9536 13.2944 24.2688 12.9791 24.6465 12.6014L24.6681 12.5799L26.3298 10.9182L26.3513 10.8967L26.3513 10.8966C26.729 10.5189 27.0443 10.2037 27.2808 9.92512C27.5275 9.63455 27.7322 9.3349 27.8492 8.97491C28.0286 8.42259 28.0286 7.82764 27.8492 7.27532C27.7322 6.91533 27.5275 6.61568 27.2808 6.32511C27.0443 6.04652 26.729 5.73126 26.3513 5.35356L26.3298 5.33204L24.6681 3.67034ZM22.2613 3.57754C22.3579 3.60895 22.4846 3.6764 22.7042 3.86284C22.9305 4.05497 23.2026 4.32623 23.6074 4.731L25.2691 6.3927C25.6739 6.79747 25.9451 7.06956 26.1373 7.29588C26.3237 7.51549 26.3912 7.64218 26.4226 7.73884C26.5042 7.9899 26.5042 8.26033 26.4226 8.51139C26.3912 8.60805 26.3237 8.73474 26.1373 8.95435C25.9451 9.18067 25.6739 9.45276 25.2691 9.85753L23.6074 11.5192C23.2026 11.924 22.9305 12.1953 22.7042 12.3874C22.4846 12.5738 22.3579 12.6413 22.2613 12.6727C22.0102 12.7543 21.7398 12.7543 21.4887 12.6727C21.3921 12.6413 21.2654 12.5738 21.0458 12.3874C20.8195 12.1953 20.5474 11.924 20.1426 11.5192L18.4809 9.85753C18.0761 9.45276 17.8049 9.18067 17.6127 8.95435C17.4263 8.73474 17.3588 8.60805 17.3274 8.51139C17.2458 8.26033 17.2458 7.9899 17.3274 7.73884C17.3588 7.64218 17.4263 7.51549 17.6127 7.29588C17.8049 7.06956 18.0761 6.79747 18.4809 6.3927L20.1426 4.731C20.5474 4.32623 20.8195 4.05497 21.0458 3.86284C21.2654 3.6764 21.3921 3.60895 21.4887 3.57754C21.7398 3.49596 22.0102 3.49596 22.2613 3.57754ZM6.95 3.00006L6.91957 3.00006C6.38541 3.00005 5.93956 3.00004 5.57533 3.0298C5.19545 3.06084 4.83879 3.12795 4.50153 3.2998C3.98408 3.56345 3.56338 3.98414 3.29973 4.50159C3.12789 4.83885 3.06078 5.19551 3.02974 5.57539C2.99998 5.93963 2.99999 6.38548 3 6.91963L3 6.95006V9.30006L3 9.3305C2.99999 9.86465 2.99998 10.3105 3.02974 10.6747C3.06078 11.0546 3.12789 11.4113 3.29973 11.7485C3.56338 12.266 3.98408 12.6867 4.50153 12.9503C4.83879 13.1222 5.19545 13.1893 5.57533 13.2203C5.93955 13.2501 6.38538 13.2501 6.91951 13.2501H6.91955H6.95H9.3H9.33045H9.33049C9.86462 13.2501 10.3105 13.2501 10.6747 13.2203C11.0546 13.1893 11.4112 13.1222 11.7485 12.9503C12.2659 12.6867 12.6866 12.266 12.9503 11.7485C13.1221 11.4113 13.1892 11.0546 13.2203 10.6747C13.25 10.3105 13.25 9.86469 13.25 9.33056V9.33052V9.30006V6.95006V6.91961V6.91957C13.25 6.38544 13.25 5.93961 13.2203 5.57539C13.1892 5.19551 13.1221 4.83885 12.9503 4.50159C12.6866 3.98414 12.2659 3.56345 11.7485 3.2998C11.4112 3.12795 11.0546 3.06084 10.6747 3.0298C10.3104 3.00004 9.86459 3.00005 9.33044 3.00006L9.3 3.00006H6.95ZM5.18251 4.63631C5.27307 4.59016 5.41036 4.54828 5.69748 4.52482C5.99336 4.50065 6.37757 4.50006 6.95 4.50006H9.3C9.87243 4.50006 10.2566 4.50065 10.5525 4.52482C10.8396 4.54828 10.9769 4.59016 11.0675 4.63631C11.3027 4.75615 11.4939 4.94737 11.6138 5.18258C11.6599 5.27314 11.7018 5.41042 11.7252 5.69754C11.7494 5.99342 11.75 6.37764 11.75 6.95006V9.30006C11.75 9.87249 11.7494 10.2567 11.7252 10.5526C11.7018 10.8397 11.6599 10.977 11.6138 11.0676C11.4939 11.3028 11.3027 11.494 11.0675 11.6138C10.9769 11.66 10.8396 11.7018 10.5525 11.7253C10.2566 11.7495 9.87243 11.7501 9.3 11.7501H6.95C6.37757 11.7501 5.99336 11.7495 5.69748 11.7253C5.41036 11.7018 5.27307 11.66 5.18251 11.6138C4.94731 11.494 4.75608 11.3028 4.63624 11.0676C4.5901 10.977 4.54822 10.8397 4.52476 10.5526C4.50058 10.2567 4.5 9.87249 4.5 9.30006V6.95006C4.5 6.37764 4.50058 5.99342 4.52476 5.69754C4.54822 5.41042 4.5901 5.27314 4.63624 5.18258C4.75608 4.94737 4.94731 4.75615 5.18251 4.63631ZM6.91957 16.7501H6.95H9.3H9.33044C9.86459 16.7501 10.3104 16.75 10.6747 16.7798C11.0546 16.8108 11.4112 16.878 11.7485 17.0498C12.2659 17.3134 12.6866 17.7341 12.9503 18.2516C13.1221 18.5889 13.1892 18.9455 13.2203 19.3254C13.25 19.6896 13.25 20.1354 13.25 20.6696V20.6696V20.7001V23.0501V23.0805V23.0806C13.25 23.6147 13.25 24.0605 13.2203 24.4247C13.1892 24.8046 13.1221 25.1613 12.9503 25.4985C12.6866 26.016 12.2659 26.4367 11.7485 26.7003C11.4112 26.8722 11.0546 26.9393 10.6747 26.9703C10.3105 27.0001 9.86465 27.0001 9.33054 27.0001H9.33045H9.3H6.95H6.91955H6.91946C6.38535 27.0001 5.93954 27.0001 5.57533 26.9703C5.19545 26.9393 4.83879 26.8722 4.50153 26.7003C3.98408 26.4367 3.56338 26.016 3.29973 25.4985C3.12789 25.1613 3.06078 24.8046 3.02974 24.4247C2.99998 24.0605 2.99999 23.6147 3 23.0805L3 23.0501V20.7001L3 20.6696C2.99999 20.1355 2.99998 19.6896 3.02974 19.3254C3.06078 18.9455 3.12789 18.5889 3.29973 18.2516C3.56338 17.7341 3.98408 17.3134 4.50153 17.0498C4.83879 16.878 5.19545 16.8108 5.57533 16.7798C5.93956 16.75 6.38541 16.7501 6.91957 16.7501ZM5.69748 18.2748C5.41036 18.2983 5.27307 18.3402 5.18251 18.3863C4.94731 18.5061 4.75608 18.6974 4.63624 18.9326C4.5901 19.0231 4.54822 19.1604 4.52476 19.4475C4.50058 19.7434 4.5 20.1276 4.5 20.7001V23.0501C4.5 23.6225 4.50058 24.0067 4.52476 24.3026C4.54822 24.5897 4.5901 24.727 4.63624 24.8176C4.75608 25.0528 4.94731 25.244 5.18251 25.3638C5.27307 25.41 5.41036 25.4518 5.69748 25.4753C5.99336 25.4995 6.37757 25.5001 6.95 25.5001H9.3C9.87243 25.5001 10.2566 25.4995 10.5525 25.4753C10.8396 25.4518 10.9769 25.41 11.0675 25.3638C11.3027 25.244 11.4939 25.0528 11.6138 24.8176C11.6599 24.727 11.7018 24.5897 11.7252 24.3026C11.7494 24.0067 11.75 23.6225 11.75 23.0501V20.7001C11.75 20.1276 11.7494 19.7434 11.7252 19.4475C11.7018 19.1604 11.6599 19.0231 11.6138 18.9326C11.4939 18.6974 11.3027 18.5061 11.0675 18.3863C10.9769 18.3402 10.8396 18.2983 10.5525 18.2748C10.2566 18.2506 9.87243 18.2501 9.3 18.2501H6.95C6.37757 18.2501 5.99336 18.2506 5.69748 18.2748ZM20.7 16.7501H20.6696C20.1354 16.7501 19.6896 16.75 19.3253 16.7798C18.9454 16.8108 18.5888 16.878 18.2515 17.0498C17.7341 17.3134 17.3134 17.7341 17.0497 18.2516C16.8779 18.5889 16.8108 18.9455 16.7797 19.3254C16.75 19.6896 16.75 20.1355 16.75 20.6696V20.7001V23.0501V23.0805C16.75 23.6147 16.75 24.0605 16.7797 24.4247C16.8108 24.8046 16.8779 25.1613 17.0497 25.4985C17.3134 26.016 17.7341 26.4367 18.2515 26.7003C18.5888 26.8722 18.9454 26.9393 19.3253 26.9703C19.6895 27.0001 20.1354 27.0001 20.6695 27.0001H20.6695H20.7H23.05H23.0805H23.0805C23.6146 27.0001 24.0605 27.0001 24.4247 26.9703C24.8046 26.9393 25.1612 26.8722 25.4985 26.7003C26.0159 26.4367 26.4366 26.016 26.7003 25.4985C26.8721 25.1613 26.9392 24.8046 26.9703 24.4247C27 24.0605 27 23.6147 27 23.0805V23.0501V20.7001V20.6696C27 20.1355 27 19.6896 26.9703 19.3254C26.9392 18.9455 26.8721 18.5889 26.7003 18.2516C26.4366 17.7341 26.0159 17.3134 25.4985 17.0498C25.1612 16.878 24.8046 16.8108 24.4247 16.7798C24.0604 16.75 23.6146 16.7501 23.0804 16.7501H23.05H20.7ZM18.9325 18.3863C19.0231 18.3402 19.1604 18.2983 19.4475 18.2748C19.7434 18.2506 20.1276 18.2501 20.7 18.2501H23.05C23.6224 18.2501 24.0066 18.2506 24.3025 18.2748C24.5896 18.2983 24.7269 18.3402 24.8175 18.3863C25.0527 18.5061 25.2439 18.6974 25.3638 18.9326C25.4099 19.0231 25.4518 19.1604 25.4752 19.4475C25.4994 19.7434 25.5 20.1276 25.5 20.7001V23.0501C25.5 23.6225 25.4994 24.0067 25.4752 24.3026C25.4518 24.5897 25.4099 24.727 25.3638 24.8176C25.2439 25.0528 25.0527 25.244 24.8175 25.3638C24.7269 25.41 24.5896 25.4518 24.3025 25.4753C24.0066 25.4995 23.6224 25.5001 23.05 25.5001H20.7C20.1276 25.5001 19.7434 25.4995 19.4475 25.4753C19.1604 25.4518 19.0231 25.41 18.9325 25.3638C18.6973 25.244 18.5061 25.0528 18.3862 24.8176C18.3401 24.727 18.2982 24.5897 18.2748 24.3026C18.2506 24.0067 18.25 23.6225 18.25 23.0501V20.7001C18.25 20.1276 18.2506 19.7434 18.2748 19.4475C18.2982 19.1604 18.3401 19.0231 18.3862 18.9326C18.5061 18.6974 18.6973 18.5061 18.9325 18.3863Z"/>
</svg>
