<svg width="24" height="24" viewBox="0 0 24 24" xmlns="http://www.w3.org/2000/svg">
<path d="M8.59948 5.38188C8.87545 4.41595 9.75832 3.75 10.7629 3.75H13.2371C14.2417 3.75 15.1245 4.41595 15.4005 5.38188L15.5817 6.01586C15.7904 6.74636 16.4581 7.25 17.2178 7.25C19.1686 7.25 20.75 8.83142 20.75 10.7822V17C20.75 19.0711 19.0711 20.75 17 20.75H7C4.92893 20.75 3.25 19.0711 3.25 17V10.7822C3.25 8.83142 4.83142 7.25 6.78221 7.25C7.54194 7.25 8.20962 6.74636 8.41834 6.01586L8.59948 5.38188ZM10.7629 2.25C9.0886 2.25 7.61716 3.35992 7.15719 4.9698L6.97605 5.60378C6.95132 5.69033 6.87222 5.75 6.78221 5.75C4.003 5.75 1.75 8.003 1.75 10.7822V17C1.75 19.8995 4.10051 22.25 7 22.25H17C19.8995 22.25 22.25 19.8995 22.25 17V10.7822C22.25 8.003 19.997 5.75 17.2178 5.75C17.1278 5.75 17.0487 5.69033 17.0239 5.60378L16.8428 4.9698C16.3828 3.35992 14.9114 2.25 13.2371 2.25H10.7629ZM8.75 13.5C8.75 11.7051 10.2051 10.25 12 10.25C13.7949 10.25 15.25 11.7051 15.25 13.5C15.25 15.2949 13.7949 16.75 12 16.75C10.2051 16.75 8.75 15.2949 8.75 13.5ZM12 8.75C9.37665 8.75 7.25 10.8766 7.25 13.5C7.25 16.1234 9.37665 18.25 12 18.25C14.6234 18.25 16.75 16.1234 16.75 13.5C16.75 10.8766 14.6234 8.75 12 8.75Z"/>
</svg>
