<svg width="24" height="24" viewBox="0 0 24 24" fill="none" xmlns="http://www.w3.org/2000/svg">
<path d="M19.395 8.00552C20.5371 6.73656 21.1081 6.10209 21.1307 5.56258C21.1502 5.09394 20.9494 4.64312 20.588 4.34417C20.1719 4 19.3183 4 17.6111 4H6.38887C4.68167 4 3.82807 4 3.41198 4.34417C3.05056 4.64312 2.84978 5.09394 2.86935 5.56258C2.89188 6.10209 3.46291 6.73656 4.60496 8.00552L9.17854 13.0873C9.48235 13.4248 9.63425 13.5936 9.74258 13.7859C9.83866 13.9565 9.90917 14.1403 9.95186 14.3313C10 14.5467 10 14.7738 10 15.228V19.6132C10 19.9369 10 20.0988 10.0458 20.2448C10.0862 20.374 10.1526 20.4936 10.2407 20.5965C10.3403 20.7127 10.4775 20.7984 10.752 20.97L11.552 21.47C12.351 21.9694 12.7505 22.219 13.0801 22.1925C13.3675 22.1694 13.6309 22.0234 13.8028 21.792C14 21.5265 14 21.0554 14 20.1132V15.228C14 14.7738 14 14.5467 14.0481 14.3313C14.0908 14.1403 14.1613 13.9565 14.2574 13.7859C14.3657 13.5936 14.5177 13.4248 14.8215 13.0873L19.395 8.00552Z" stroke="#433247" stroke-width="1.5" stroke-linecap="round" stroke-linejoin="round"/>
</svg>
