<svg width="40" height="40" viewBox="0 0 40 40" fill="none" xmlns="http://www.w3.org/2000/svg">
<rect width="40" height="40" rx="20" fill="white"/>
<path fill-rule="evenodd" clip-rule="evenodd" d="M20.2321 9.75H20.2H19.8H19.7679H19.7679C18.9551 9.74999 18.2994 9.74999 17.7685 9.79336C17.2219 9.83803 16.7418 9.93239 16.2975 10.1587C15.5919 10.5183 15.0183 11.0919 14.6587 11.7975C14.4324 12.2418 14.338 12.7219 14.2934 13.2685C14.25 13.7994 14.25 14.455 14.25 15.2679V15.3V15.3565C13.7316 15.4275 13.2717 15.5495 12.8435 15.7677C11.9498 16.2231 11.2231 16.9498 10.7677 17.8435C10.4869 18.3947 10.3653 18.9983 10.307 19.7117C10.25 20.4094 10.25 21.2749 10.25 22.367V22.4V23.6V23.633C10.25 24.7251 10.25 25.5906 10.307 26.2883C10.3653 27.0017 10.4869 27.6053 10.7677 28.1565C11.2231 29.0502 11.9498 29.7769 12.8435 30.2323C13.3947 30.5131 13.9983 30.6347 14.7117 30.693C15.4093 30.75 16.2748 30.75 17.3669 30.75H17.367H17.4H22.6H22.633H22.6331C23.7252 30.75 24.5907 30.75 25.2883 30.693C26.0017 30.6347 26.6053 30.5131 27.1565 30.2323C28.0502 29.7769 28.7769 29.0502 29.2323 28.1565C29.5131 27.6053 29.6347 27.0017 29.693 26.2883C29.75 25.5906 29.75 24.7252 29.75 23.633V23.6V20.5L29.75 20.4524V20.4523V20.4522C29.75 20.0335 29.7501 19.7672 29.7271 19.5344C29.5144 17.3749 27.8694 15.6472 25.75 15.3095V15.3V15.2679C25.75 14.4551 25.75 13.7994 25.7066 13.2685C25.662 12.7219 25.5676 12.2418 25.3413 11.7975C24.9817 11.0919 24.4081 10.5183 23.7025 10.1587C23.2582 9.93239 22.7781 9.83803 22.2315 9.79336C21.7006 9.74999 21.0449 9.74999 20.2321 9.75H20.2321ZM17.367 15.25C16.7617 15.25 16.2261 15.25 15.75 15.2597C15.75 14.4288 15.7512 13.846 15.7884 13.3907C15.8255 12.9368 15.8946 12.676 15.9952 12.4785C16.211 12.0552 16.5552 11.711 16.9785 11.4952C17.176 11.3946 17.4368 11.3255 17.8907 11.2884C18.3533 11.2506 18.9475 11.25 19.8 11.25H20.2C21.0525 11.25 21.6467 11.2506 22.1093 11.2884C22.5632 11.3255 22.824 11.3946 23.0215 11.4952C23.4448 11.711 23.789 12.0552 24.0048 12.4785C24.1054 12.676 24.1745 12.9368 24.2116 13.3907C24.2487 13.8442 24.25 14.4242 24.25 15.25H20H17.4H17.367H17.367ZM25.3186 16.7656C25.1689 16.7509 24.9822 16.75 24.5 16.75H20H17.4C16.2675 16.75 15.4633 16.7506 14.8339 16.802C14.2133 16.8527 13.829 16.9491 13.5245 17.1042C12.913 17.4158 12.4158 17.913 12.1042 18.5245C11.9491 18.829 11.8527 19.2133 11.802 19.8339C11.7506 20.4633 11.75 21.2675 11.75 22.4V23.6C11.75 24.7325 11.7506 25.5367 11.802 26.1661C11.8527 26.7867 11.9491 27.171 12.1042 27.4755C12.4158 28.087 12.913 28.5842 13.5245 28.8958C13.829 29.0509 14.2133 29.1473 14.8339 29.198C15.4633 29.2494 16.2675 29.25 17.4 29.25H22.6C23.7325 29.25 24.5367 29.2494 25.1661 29.198C25.7867 29.1473 26.171 29.0509 26.4755 28.8958C27.087 28.5842 27.5842 28.087 27.8958 27.4755C28.0509 27.171 28.1473 26.7867 28.198 26.1661C28.2494 25.5367 28.25 24.7325 28.25 23.6V20.5C28.25 20.0178 28.2491 19.8311 28.2344 19.6814C28.0824 18.1384 26.8616 16.9176 25.3186 16.7656ZM20.75 21C20.75 20.5858 20.4142 20.25 20 20.25C19.5858 20.25 19.25 20.5858 19.25 21V24C19.25 24.4142 19.5858 24.75 20 24.75C20.4142 24.75 20.75 24.4142 20.75 24V21Z" fill="#00A2FF"/>
</svg>
