<svg width="30" height="30" viewBox="0 0 30 30" xmlns="http://www.w3.org/2000/svg">
<path d="M17.3877 12.1836C17.2496 12.1836 17.1377 12.0717 17.1377 11.9336V3.70586C17.1377 3.63407 17.1666 3.57655 17.203 3.54127C17.2362 3.50901 17.2718 3.49709 17.3129 3.50112C18.2402 3.59208 19.1507 3.81946 20.0147 4.17731C21.1645 4.65361 22.2094 5.35174 23.0895 6.23183C23.9696 7.11192 24.6677 8.15674 25.144 9.30664C25.5018 10.1706 25.7292 11.0811 25.8202 12.0084C25.8242 12.0495 25.8123 12.0851 25.78 12.1183C25.7447 12.1547 25.6872 12.1836 25.6154 12.1836H17.3877ZM15.6377 11.9336C15.6377 12.9001 16.4212 13.6836 17.3877 13.6836H25.6154C26.5599 13.6836 27.415 12.9019 27.313 11.862C27.2077 10.7879 26.9443 9.73329 26.5298 8.73261C25.9781 7.40073 25.1695 6.19055 24.1501 5.17117C23.1307 4.15179 21.9206 3.34318 20.5887 2.79149C19.588 2.377 18.5334 2.11364 17.4593 2.00829C16.4194 1.90629 15.6377 2.76138 15.6377 3.70586V11.9336ZM12.0525 6.91039C12.0937 6.90635 12.1292 6.91827 12.1624 6.95054C12.1988 6.98583 12.2278 7.04334 12.2278 7.11512V15.3429C12.2278 16.3094 13.0113 17.0929 13.9778 17.0929H22.2055C22.2773 17.0929 22.3348 17.1218 22.3701 17.1582C22.4024 17.1915 22.4143 17.227 22.4103 17.2681C22.2585 18.8158 21.7275 20.3075 20.8582 21.6084C19.8168 23.1671 18.3366 24.3818 16.6047 25.0992C14.8729 25.8165 12.9673 26.0042 11.1287 25.6385C9.29024 25.2728 7.60147 24.3702 6.27598 23.0447C4.95049 21.7192 4.04782 20.0304 3.68212 18.1919C3.31642 16.3534 3.50411 14.4477 4.22146 12.7159C4.93881 10.9841 6.15359 9.50384 7.7122 8.46241C9.01313 7.59316 10.5048 7.06219 12.0525 6.91039ZM13.7278 7.11512C13.7278 6.17062 12.946 5.31556 11.9061 5.41755C10.1135 5.59338 8.38568 6.20838 6.87885 7.21521C5.07357 8.42146 3.66652 10.136 2.83564 12.1419C2.00476 14.1478 1.78736 16.3551 2.21094 18.4845C2.63452 20.614 3.68005 22.5701 5.21532 24.1053C6.75058 25.6406 8.70663 26.6861 10.8361 27.1097C12.9656 27.5333 15.1728 27.3159 17.1788 26.485C19.1847 25.6541 20.8992 24.2471 22.1054 22.4418C23.1123 20.935 23.7273 19.2072 23.9031 17.4145C24.0051 16.3747 23.15 15.5929 22.2055 15.5929H13.9778C13.8397 15.5929 13.7278 15.481 13.7278 15.3429V7.11512Z"/>
</svg>
