<svg width="30" height="30" viewBox="0 0 30 30" xmlns="http://www.w3.org/2000/svg">
<path d="M7.29727 6.89838C9.3044 4.80314 12.128 3.5 15.2573 3.5C21.3442 3.5 26.2787 8.43446 26.2787 14.5214C26.2787 20.6084 21.3442 25.5429 15.2573 25.5429C9.17029 25.5429 4.23583 20.6084 4.23583 14.5214H2.73583C2.73583 21.4368 8.34187 27.0429 15.2573 27.0429C22.1727 27.0429 27.7787 21.4368 27.7787 14.5214C27.7787 7.60603 22.1727 2 15.2573 2C11.7023 2 8.49239 3.48241 6.21408 5.86074C5.48991 6.61671 4.85946 7.46352 4.34155 8.38257L3.48956 3.36027C3.42028 2.9519 3.03306 2.677 2.62468 2.74628C2.2163 2.81556 1.94141 3.20278 2.01068 3.61115L3.17557 10.4778L3.28152 11.1024H3.915H10.5977C11.012 11.1024 11.3477 10.7666 11.3477 10.3524C11.3477 9.93817 11.012 9.60238 10.5977 9.60238H5.39157C5.88941 8.60597 6.53402 7.69514 7.29727 6.89838Z"/>
<path d="M14.7637 7.77148V14.6136L20.7637 20.7715" stroke-width="1.5" stroke-linecap="round" stroke-linejoin="round"/>
</svg>
