<svg width="24" height="24" viewBox="0 0 24 24" xmlns="http://www.w3.org/2000/svg">
<path d="M10.7298 1.25021L10.621 1.25011C10.1084 1.24934 9.65851 1.24867 9.25762 1.40634C8.90709 1.5442 8.59677 1.76786 8.35513 2.05682C8.07878 2.38727 7.93715 2.81431 7.77577 3.30085L7.74147 3.4041L7.45943 4.25021H4H2C1.58579 4.25021 1.25 4.586 1.25 5.00021C1.25 5.41443 1.58579 5.75021 2 5.75021H3.29282L3.84024 15.0563L3.84177 15.0824C3.90335 16.1292 3.95168 16.9509 4.03388 17.6149C4.1176 18.2911 4.24147 18.8531 4.47666 19.3724C5.10057 20.75 6.24212 21.8264 7.65402 22.3683C8.18623 22.5726 8.75449 22.6633 9.4345 22.7072C10.1022 22.7502 10.9253 22.7502 11.9739 22.7502H12H12.0261C13.0747 22.7502 13.8978 22.7502 14.5655 22.7072C15.2455 22.6633 15.8138 22.5726 16.346 22.3683C17.7579 21.8264 18.8994 20.75 19.5233 19.3724C19.7585 18.8531 19.8824 18.2911 19.9661 17.6149C20.0483 16.9509 20.0967 16.1292 20.1582 15.0824L20.1598 15.0563L20.7072 5.75021H22C22.4142 5.75021 22.75 5.41443 22.75 5.00021C22.75 4.586 22.4142 4.25021 22 4.25021H20H16.5406L16.2585 3.4041L16.2242 3.30084C16.0629 2.8143 15.9212 2.38727 15.6449 2.05682C15.4032 1.76786 15.0929 1.5442 14.7424 1.40634C14.3415 1.24867 13.8916 1.24934 13.379 1.25011L13.2702 1.25021H10.7298ZM15.9825 5.75021C15.9941 5.75048 16.0057 5.75049 16.0173 5.75021H19.2046L18.6623 14.9683C18.5989 16.0467 18.553 16.8202 18.4775 17.4306C18.4028 18.0342 18.3041 18.4287 18.1569 18.7536C17.6958 19.7718 16.852 20.5674 15.8085 20.968C15.4756 21.0957 15.0759 21.1711 14.4689 21.2103C13.8552 21.2499 13.0803 21.2502 12 21.2502C10.9197 21.2502 10.1448 21.2499 9.53105 21.2103C8.92408 21.1711 8.52444 21.0957 8.19154 20.968C7.14797 20.5674 6.30421 19.7718 5.84306 18.7536C5.69595 18.4287 5.59724 18.0342 5.52252 17.4306C5.44695 16.8202 5.40109 16.0467 5.33765 14.9683L4.79541 5.75021H7.9827C7.99433 5.75049 8.00594 5.75048 8.01751 5.75021H15.9825ZM14.9594 4.25021L14.8355 3.87844C14.6186 3.22761 14.5633 3.10174 14.4942 3.01908C14.4137 2.92276 14.3102 2.84821 14.1934 2.80225C14.0931 2.76282 13.9562 2.75021 13.2702 2.75021H10.7298C10.0438 2.75021 9.90691 2.76282 9.80663 2.80225C9.68979 2.84821 9.58635 2.92276 9.5058 3.01908C9.43668 3.10174 9.38144 3.22761 9.16449 3.87844L9.04057 4.25021H14.9594ZM10.75 10.0002C10.75 9.586 10.4142 9.25021 10 9.25021C9.58579 9.25021 9.25 9.586 9.25 10.0002V17.0002C9.25 17.4144 9.58579 17.7502 10 17.7502C10.4142 17.7502 10.75 17.4144 10.75 17.0002V10.0002ZM14 9.25021C14.4142 9.25021 14.75 9.586 14.75 10.0002V17.0002C14.75 17.4144 14.4142 17.7502 14 17.7502C13.5858 17.7502 13.25 17.4144 13.25 17.0002V10.0002C13.25 9.586 13.5858 9.25021 14 9.25021Z"/>
</svg>
