<svg width="30" height="30" viewBox="0 0 30 30"  xmlns="http://www.w3.org/2000/svg">
<path d="M15.7555 3.98883C15.254 4.47704 14.6228 5.27761 13.7173 6.43008L7.77318 13.9954C7.0943 14.8594 6.63967 15.4412 6.38301 15.8886C6.25792 16.1066 6.20965 16.2438 6.19465 16.3257C6.18372 16.3854 6.19195 16.4016 6.1962 16.41C6.19646 16.4105 6.1967 16.411 6.19692 16.4115C6.19714 16.4119 6.19737 16.4124 6.19761 16.4129C6.2016 16.4215 6.20931 16.438 6.26293 16.4662C6.33663 16.5051 6.47433 16.5519 6.72307 16.5882C7.23343 16.6628 7.97178 16.6648 9.07061 16.6648H11.5849C11.5963 16.6648 11.6078 16.6648 11.6194 16.6648C11.8245 16.6647 12.0463 16.6646 12.2335 16.6898C12.4528 16.7192 12.733 16.7951 12.9688 17.0309C13.2046 17.2667 13.2804 17.5469 13.3099 17.7662C13.3351 17.9534 13.335 18.1752 13.3349 18.3803C13.3349 18.3919 13.3349 18.4033 13.3349 18.4148V22.5502C13.3349 24.0158 13.3366 25.0353 13.4293 25.729C13.4753 26.0736 13.5365 26.2706 13.5918 26.3773C13.6166 26.4252 13.6336 26.4419 13.6364 26.4445C13.6369 26.445 13.6349 26.444 13.6378 26.4451C13.6408 26.4461 13.6386 26.4456 13.6393 26.4455C13.643 26.4452 13.6668 26.4426 13.7159 26.4203C13.8252 26.3705 13.9951 26.2534 14.2442 26.0109C14.7457 25.5226 15.3768 24.7221 16.2823 23.5696L22.2265 16.0043C22.9054 15.1403 23.36 14.5585 23.6167 14.1111C23.7417 13.8931 23.79 13.7559 23.805 13.6739C23.8159 13.6143 23.8077 13.5981 23.8035 13.5897C23.8032 13.5891 23.803 13.5887 23.8027 13.5882C23.8025 13.5878 23.8023 13.5873 23.8021 13.5868C23.7981 13.5782 23.7904 13.5617 23.7367 13.5334C23.663 13.4946 23.5253 13.4478 23.2766 13.4115C22.7662 13.3369 22.0279 13.3349 20.9291 13.3349H18.4148C18.4033 13.3349 18.3918 13.3349 18.3803 13.3349C18.1752 13.335 17.9534 13.3351 17.7662 13.3099C17.5469 13.2804 17.2667 13.2046 17.0309 12.9688C16.7951 12.733 16.7192 12.4528 16.6897 12.2335C16.6646 12.0463 16.6647 11.8245 16.6647 11.6194C16.6647 11.6078 16.6648 11.5963 16.6648 11.5849V7.44949C16.6648 5.98384 16.6631 4.9644 16.5704 4.27068C16.5243 3.92603 16.4631 3.72905 16.4079 3.62235C16.3831 3.57444 16.366 3.55774 16.3633 3.5552C16.363 3.5549 16.3635 3.55511 16.3635 3.55512C16.3634 3.55513 16.3631 3.55505 16.3618 3.55462C16.3589 3.5536 16.3611 3.55413 16.3603 3.55419C16.3566 3.5545 16.3329 3.55706 16.2838 3.57942C16.1744 3.6292 16.0046 3.74628 15.7555 3.98883ZM14.7091 2.91404C15.2556 2.38206 15.9901 1.83886 16.8521 2.13702C17.7142 2.43517 17.9562 3.31611 18.0572 4.07201C18.1648 4.87743 18.1648 5.99843 18.1648 7.38657V7.44949V11.5849C18.1648 11.684 18.1648 11.7643 18.1659 11.8338C18.2354 11.8349 18.3157 11.8349 18.4148 11.8349H20.9291L20.9917 11.8349C22.0117 11.8349 22.8614 11.8349 23.4935 11.9272C24.1301 12.0203 24.8168 12.2433 25.1518 12.9325C25.4868 13.6217 25.2379 14.2995 24.9177 14.8575C24.5998 15.4117 24.0748 16.0798 23.4447 16.8818L23.406 16.9311L17.4618 24.4963L17.4229 24.5458C16.5653 25.6374 15.8728 26.5188 15.2905 27.0856C14.7441 27.6176 14.0096 28.1608 13.1475 27.8627C12.2855 27.5645 12.0435 26.6836 11.9425 25.9277C11.8349 25.1222 11.8349 24.0013 11.8349 22.6131L11.8349 22.5502V18.4148C11.8349 18.3157 11.8349 18.2354 11.8338 18.1659C11.7643 18.1648 11.684 18.1648 11.5849 18.1648H9.07061H9.00795C7.98803 18.1648 7.13829 18.1648 6.50615 18.0724C5.86956 17.9794 5.18283 17.7564 4.84783 17.0672C4.51283 16.3779 4.76177 15.7002 5.08192 15.1421C5.39981 14.588 5.92483 13.9199 6.55498 13.1179L6.5937 13.0686L12.5378 5.50335L12.5767 5.4539C13.4343 4.36235 14.1269 3.48087 14.7091 2.91404Z"/>
</svg>
